# File created by Blade
# Date/Time:  Thu Sep 25 18:39:44 2014
# Frame Rate: 120.000 fps
#------------------------------------------------------
:FULLY-SPECIFIED
:DEGREES
2364
root -1.325872 33.034975 -3.190969 5.914838 8.114493 -0.228186
Spine -12.702646 12.971453 -5.033545
Head -17.228433 -32.207989 27.167486
LeftShoulder 16.979372 13.033840 11.355792
LeftArm 49.139639 21.554224 -80.152147
LeftForeArm -55.080347 -0.000000 122.308667
LeftHand -7.586727 -0.000000 -20.531674
LeftHandThumb1 -26.253704 0.000000 33.147579
RightShoulder 4.697020 36.842653 -34.220474
RightArm 95.136180 -35.843935 64.548708
RightForeArm 16.927550 -0.000000 123.689800
RightHand 0.306423 -0.000000 42.173865
RightHandThumb1 -24.326973 -0.000000 -32.862282
LeftUpLeg -1.752248 3.852711 2.302377
LeftLeg -0.179166 -0.000000 0.000000
LeftFoot -8.021245 -0.713735 -10.676786
LeftToeBase 10.054480 -0.000000 -0.000000
RightUpLeg -1.299199 -9.696435 0.640030
RightLeg 1.642539 -0.000000 -0.000000
RightFoot -8.441299 -3.730361 -0.294228
RightToeBase -0.204785 -0.000000 0.000000
2365
root -1.325229 33.035662 -3.192591 5.914668 8.111950 -0.230781
Spine -12.713813 12.958398 -5.020312
Head -17.193289 -32.174612 27.145699
LeftShoulder 16.971355 13.036253 11.343504
LeftArm 49.147711 21.565989 -80.137168
LeftForeArm -55.067780 0.000000 122.292037
LeftHand -7.616407 0.000000 -20.559918
LeftHandThumb1 -26.253704 0.000000 33.147579
RightShoulder 4.674350 36.912148 -34.258293
RightArm 95.030555 -35.885983 64.627670
RightForeArm 16.923602 -0.000000 123.704270
RightHand 0.316879 -0.000000 42.173148
RightHandThumb1 -24.326973 -0.000000 -32.862282
LeftUpLeg -1.755098 3.860549 2.302989
LeftLeg -0.179531 -0.000000 0.000000
LeftFoot -8.006603 -0.718410 -10.674274
LeftToeBase 10.069428 -0.000000 -0.000000
RightUpLeg -1.296622 -9.681434 0.639210
RightLeg 1.634435 -0.000000 -0.000000
RightFoot -8.452815 -3.717557 -0.215379
RightToeBase -0.122508 -0.000000 0.000000
2366
root -1.324849 33.035742 -3.194111 5.910839 8.109055 -0.226380
Spine -12.716065 12.956013 -5.025850
Head -17.181477 -32.156384 27.155152
LeftShoulder 16.976973 13.044378 11.384941
LeftArm 49.145354 21.567859 -80.181525
LeftForeArm -55.204143 -0.000000 122.251078
LeftHand -7.648967 -0.000000 -20.756751
LeftHandThumb1 -26.253704 0.000000 33.147579
RightShoulder 4.637839 36.962998 -34.288505
RightArm 94.950467 -35.918362 64.684318
RightForeArm 16.933926 -0.000000 123.716152
RightHand 0.320121 -0.000000 42.162070
RightHandThumb1 -24.326973 -0.000000 -32.862282
LeftUpLeg -1.751482 3.861378 2.298495
LeftLeg -0.183929 -0.000000 0.000000
LeftFoot -8.000988 -0.718541 -10.699497
LeftToeBase 10.101505 -0.000000 -0.000000
RightUpLeg -1.304308 -9.694379 0.635396
RightLeg 1.649256 -0.000000 -0.000000
RightFoot -8.434530 -3.723681 -0.281367
RightToeBase -0.242850 -0.000000 0.000000
2367
root -1.324999 33.036452 -3.196638 5.915637 8.110884 -0.225599
Spine -12.730357 12.929388 -5.020066
Head -17.133541 -32.118902 27.130328
LeftShoulder 16.974144 13.057191 11.388394
LeftArm 49.163237 21.562176 -80.162204
LeftForeArm -55.178325 0.000000 122.235938
LeftHand -7.645515 -0.000000 -20.761445
LeftHandThumb1 -26.253704 0.000000 33.147579
RightShoulder 4.635219 36.998345 -34.291309
RightArm 94.898287 -35.931240 64.707667
RightForeArm 16.943925 0.000000 123.707648
RightHand 0.358540 -0.000000 42.158196
RightHandThumb1 -24.326973 -0.000000 -32.862282
LeftUpLeg -1.763103 3.864266 2.297901
LeftLeg -0.178854 -0.000000 0.000000
LeftFoot -7.985494 -0.724697 -10.676647
LeftToeBase 10.031927 -0.000000 -0.000000
RightUpLeg -1.309218 -9.662560 0.635322
RightLeg 1.641569 -0.000000 -0.000000
RightFoot -8.448278 -3.738286 -0.223045
RightToeBase -0.113825 -0.000000 0.000000
2368
root -1.324561 33.037010 -3.198136 5.914927 8.108865 -0.227967
Spine -12.741236 12.914199 -5.013296
Head -17.104276 -32.110275 27.119061
LeftShoulder 16.952421 13.074877 11.422953
LeftArm 49.182446 21.569929 -80.189715
LeftForeArm -55.334909 0.000000 122.179003
LeftHand -7.678198 0.000000 -20.930235
LeftHandThumb1 -26.253704 0.000000 33.147579
RightShoulder 4.603556 37.027647 -34.320938
RightArm 94.829574 -35.968268 64.754067
RightForeArm 16.978697 0.000000 123.719163
RightHand 0.324281 -0.000000 42.152528
RightHandThumb1 -24.326973 -0.000000 -32.862282
LeftUpLeg -1.761069 3.862825 2.298196
LeftLeg -0.189961 -0.000000 0.000000
LeftFoot -7.979786 -0.722067 -10.664970
LeftToeBase 10.069361 -0.000000 -0.000000
RightUpLeg -1.311319 -9.656083 0.637095
RightLeg 1.641763 -0.000000 -0.000000
RightFoot -8.440932 -3.754582 -0.237229
RightToeBase -0.106464 -0.000000 0.000000
2369
root -1.324396 33.036593 -3.199382 5.909979 8.107325 -0.222835
Spine -12.742795 12.896927 -5.007600
Head -17.069715 -32.101748 27.081494
LeftShoulder 16.950217 13.045279 11.374917
LeftArm 49.197302 21.608112 -80.100397
LeftForeArm -55.041817 -0.000000 122.203322
LeftHand -7.528001 -0.000000 -20.611311
LeftHandThumb1 -26.253704 0.000000 33.147579
RightShoulder 4.596722 36.978658 -34.324076
RightArm 94.881778 -35.936841 64.709214
RightForeArm 16.982633 0.000000 123.700527
RightHand 0.357277 -0.000000 42.118936
RightHandThumb1 -24.326973 -0.000000 -32.862282
LeftUpLeg -1.757775 3.874152 2.290778
LeftLeg -0.188345 -0.000000 0.000000
LeftFoot -7.983766 -0.724539 -10.676873
LeftToeBase 10.063836 -0.000000 -0.000000
RightUpLeg -1.315386 -9.677256 0.632125
RightLeg 1.652580 -0.000000 -0.000000
RightFoot -8.422476 -3.746150 -0.279640
RightToeBase -0.215885 -0.000000 0.000000
2370
root -1.323067 33.036836 -3.201324 5.909311 8.110086 -0.211670
Spine -12.745022 12.868622 -5.013038
Head -17.044591 -32.092558 27.082100
LeftShoulder 16.936918 13.049078 11.387453
LeftArm 49.218260 21.628829 -80.084478
LeftForeArm -55.016976 -0.000000 122.178838
LeftHand -7.466785 0.000000 -20.612248
LeftHandThumb1 -26.253704 0.000000 33.147579
RightShoulder 4.571731 36.975186 -34.346993
RightArm 94.878549 -35.922010 64.700020
RightForeArm 16.993518 0.000000 123.715978
RightHand 0.353554 -0.000000 42.051772
RightHandThumb1 -24.326973 -0.000000 -32.862282
LeftUpLeg -1.759458 3.880139 2.276752
LeftLeg -0.187955 -0.000000 0.000000
LeftFoot -7.966888 -0.741444 -10.677036
LeftToeBase 10.014567 -0.000000 -0.000000
RightUpLeg -1.292611 -9.625512 0.619941
RightLeg 1.604048 -0.000000 -0.000000
RightFoot -8.397308 -3.809148 -0.283205
RightToeBase -0.246247 -0.000000 0.000000
2371
root -1.322964 33.037051 -3.203212 5.901095 8.107662 -0.208939
Spine -12.739178 12.861646 -5.013338
Head -17.036057 -32.097308 27.082252
LeftShoulder 16.937966 13.061649 11.399621
LeftArm 49.264382 21.649990 -80.050806
LeftForeArm -54.986572 -0.000000 122.146777
LeftHand -7.420299 -0.000000 -20.664771
LeftHandThumb1 -26.253704 0.000000 33.147579
RightShoulder 4.512295 36.850062 -34.347916
RightArm 95.024086 -35.865297 64.595400
RightForeArm 17.016030 -0.000000 123.694821
RightHand 0.381112 0.000000 42.023593
RightHandThumb1 -24.326973 -0.000000 -32.862282
LeftUpLeg -1.754722 3.889584 2.272354
LeftLeg -0.181573 -0.000000 0.000000
LeftFoot -7.973542 -0.743004 -10.659731
LeftToeBase 10.007937 -0.000000 -0.000000
RightUpLeg -1.282221 -9.602997 0.614777
RightLeg 1.597484 -0.000000 -0.000000
RightFoot -8.412276 -3.833750 -0.254412
RightToeBase -0.158625 -0.000000 0.000000
2372
root -1.324445 33.038090 -3.203749 5.892107 8.106883 -0.222906
Spine -12.740054 12.850966 -4.995797
Head -17.014082 -32.086057 27.080850
LeftShoulder 16.936385 13.064348 11.400433
LeftArm 49.297296 21.684071 -80.020827
LeftForeArm -54.992518 -0.000000 122.110875
LeftHand -7.422374 0.000000 -20.573706
LeftHandThumb1 -26.253704 0.000000 33.147579
RightShoulder 4.461493 36.885155 -34.401739
RightArm 94.952099 -35.891700 64.647919
RightForeArm 16.997911 -0.000000 123.714941
RightHand 0.413532 -0.000000 42.004279
RightHandThumb1 -24.326973 -0.000000 -32.862282
LeftUpLeg -1.749164 3.899715 2.289331
LeftLeg -0.184574 -0.000000 0.000000
LeftFoot -7.969994 -0.747007 -10.663630
LeftToeBase 10.063201 -0.000000 -0.000000
RightUpLeg -1.297519 -9.673895 0.630323
RightLeg 1.634324 -0.000000 -0.000000
RightFoot -8.393280 -3.747525 -0.294764
RightToeBase -0.229580 -0.000000 0.000000
2373
root -1.323893 33.038157 -3.206342 5.890925 8.099530 -0.215837
Spine -12.742963 12.853075 -5.002887
Head -16.991838 -32.076694 27.077589
LeftShoulder 16.937663 13.039752 11.404592
LeftArm 49.303592 21.715059 -80.020517
LeftForeArm -54.962045 -0.000000 122.069387
LeftHand -7.395437 -0.000000 -20.601995
LeftHandThumb1 -26.253704 0.000000 33.147579
RightShoulder 4.416152 36.940557 -34.466620
RightArm 94.842186 -35.907738 64.724937
RightForeArm 16.995723 -0.000000 123.743204
RightHand 0.410491 -0.000000 41.962547
RightHandThumb1 -24.326973 -0.000000 -32.862282
LeftUpLeg -1.751438 3.910246 2.279623
LeftLeg -0.181502 -0.000000 0.000000
LeftFoot -7.962081 -0.757700 -10.685944
LeftToeBase 10.079913 -0.000000 -0.000000
RightUpLeg -1.280621 -9.606696 0.622400
RightLeg 1.595179 -0.000000 -0.000000
RightFoot -8.377096 -3.829220 -0.303405
RightToeBase -0.211161 -0.000000 0.000000
2374
root -1.324874 33.038965 -3.207544 5.883795 8.106021 -0.224789
Spine -12.742849 12.830809 -4.988525
Head -16.972566 -32.056123 27.077773
LeftShoulder 16.935150 13.059365 11.408274
LeftArm 49.354642 21.733108 -79.993650
LeftForeArm -54.960027 -0.000000 122.030652
LeftHand -7.362487 -0.000000 -20.616186
LeftHandThumb1 -26.253704 0.000000 33.147579
RightShoulder 4.373394 36.982559 -34.519941
RightArm 94.764726 -35.918853 64.767114
RightForeArm 16.983982 -0.000000 123.762340
RightHand 0.420281 -0.000000 41.909865
RightHandThumb1 -24.326973 -0.000000 -32.862282
LeftUpLeg -1.750683 3.904041 2.291959
LeftLeg -0.177770 -0.000000 0.000000
LeftFoot -7.953703 -0.763790 -10.688801
LeftToeBase 10.055550 -0.000000 -0.000000
RightUpLeg -1.295162 -9.656085 0.629585
RightLeg 1.638067 -0.000000 -0.000000
RightFoot -8.411156 -3.761133 -0.263979
RightToeBase -0.112424 -0.000000 0.000000
